<svg fill="none" height="64" width="99" xmlns="http://www.w3.org/2000/svg"><clipPath id="prefix__a"><path d="M0 0h98.699v64H0z"/></clipPath><g clip-path="url(#prefix__a)"><path d="M98.699 0H0v64h98.699z" fill="#fbba00"/><path d="M15.956 29.493h1.806c2.521 0 3.326 1.698 3.326 4.354 0 2.918-1.4 3.95-2.874 3.95h-2.258zm-2.535 10.736h4.97c3.522 0 5.232-2.837 5.232-6.659 0-4.367-2.244-6.51-5.233-6.51h-4.97zM28.309 30.329h.034l1.453 4.832h-2.988zm-5.639 9.9h2.57l.905-2.932h4.314l.872 2.932h2.63l-4.313-13.17h-2.603zM41.425 31.488a2.593 2.593 0 00-.827-1.624 2.608 2.608 0 00-1.694-.681c-2.272 0-3.13 2.21-3.13 4.515 0 2.197.858 4.408 3.13 4.408 1.554 0 2.427-1.213 2.616-2.945h2.427c-.257 3.282-2.244 5.392-5.07 5.392-3.57 0-5.666-3.047-5.666-6.848 0-3.909 2.096-6.948 5.665-6.948 2.536 0 4.672 1.691 4.977 4.717zM44.86 27.06h2.542v5.055h4.665V27.06h2.536v13.17h-2.536v-5.682h-4.665v5.681H44.86zM57.713 35.862c0 1.752 1.197 2.433 2.556 2.433.885 0 2.244-.297 2.244-1.645s-1.73-1.658-3.428-2.176c-1.697-.52-3.434-1.274-3.434-3.741 0-2.696 2.224-3.983 4.307-3.983 2.407 0 4.624 1.193 4.624 4.239h-2.454c-.081-1.584-1.068-2.022-2.279-2.022-.81 0-1.744.391-1.744 1.496 0 1.106.548 1.146 3.441 2.022.839.236 3.422.85 3.422 3.835 0 2.42-1.664 4.226-4.8 4.226-2.55 0-4.943-1.442-4.91-4.684zM65.826 27.06h8.62v2.433h-6.084v2.824h5.584v2.25h-5.584v3.23h6.22v2.432h-8.756zM77.888 29.31h2.779c1.129 0 1.744.554 1.744 1.827s-.602 1.887-1.744 1.887h-2.779zm-2.535 10.92h2.535v-5.143h2.57c1.277 0 1.744.606 1.92 1.988a17.2 17.2 0 00.405 3.154h2.536c-.453-.734-.433-2.285-.48-3.114-.082-1.348-.44-2.696-1.684-3.08v-.04c1.278-.586 1.825-1.752 1.825-3.302 0-1.989-1.304-3.633-3.38-3.633h-6.22z" fill="#1a3682"/><g fill="#22262b"><path d="M14.631 43.592h-1.217v5.52h1.217zM15.611 45.115h1.048v.56A1.438 1.438 0 0117.89 45c1.17 0 1.461.674 1.461 1.644v2.46h-1.095v-2.25c0-.675-.19-.978-.676-.978s-.852.33-.852 1.139v2.096h-1.116zM21.636 45.115h.804v.715h-.804v2.022c0 .37.094.458.466.458.113.01.226.01.338 0v.856a3.866 3.866 0 01-.642.04c-.676 0-1.264-.155-1.264-.95V45.83h-.677v-.715h.677v-1.192h1.102zM23.873 46.686a.86.86 0 01.57-.805.867.867 0 01.343-.051c.534 0 .778.296.88.849zm2.894.674c.075-1.227-.581-2.373-1.947-2.373a2.034 2.034 0 00-1.9 1.31c-.097.255-.14.527-.128.8a1.95 1.95 0 001.22 1.962c.257.103.532.151.808.14a1.816 1.816 0 001.88-1.347h-.974a.905.905 0 01-.872.512c-.609 0-.953-.317-.98-1.011zM28.573 43.592H27.47v5.52h1.103zM30.574 43.592h-1.102v5.52h1.102zM31.473 45.115h1.102v3.997h-1.102zm1.102-.633h-1.102v-.89h1.102zM35.313 48.169c-.676 0-.892-.627-.892-1.2s.27-1.14.892-1.14.94.58.94 1.227a.98.98 0 01-.547 1.007.99.99 0 01-.393.099m1.988-3.053h-1.048v.532a1.255 1.255 0 00-1.197-.674 1.797 1.797 0 00-1.653 1.254 1.78 1.78 0 00-.07.728c0 1.098.513 2.022 1.717 2.022a1.356 1.356 0 001.203-.62v.525c0 .573-.27.99-.886.99a.739.739 0 01-.818-.552h-1.095c.054.917.974 1.288 1.765 1.288 1.845 0 2.082-1.112 2.082-1.773zM39.093 46.686a.86.86 0 01.568-.805.867.867 0 01.344-.051c.541 0 .778.296.88.849zm2.893.674c.082-1.227-.58-2.373-1.947-2.373a2.034 2.034 0 00-1.9 1.31c-.096.255-.14.527-.128.8a1.949 1.949 0 001.22 1.962c.257.103.532.151.808.14a1.816 1.816 0 001.88-1.347h-.974a.904.904 0 01-.865.512c-.615 0-.953-.317-.987-1.011zM42.642 45.115h1.042v.56A1.418 1.418 0 0144.907 45c1.17 0 1.468.674 1.468 1.644v2.46h-1.076v-2.25c0-.675-.196-.978-.676-.978-.48 0-.858.33-.858 1.139v2.096h-1.123zM48.64 45.115h.804v.715h-.805v2.022c0 .37.088.458.46.458.115.01.23.01.345 0v.856a3.92 3.92 0 01-.642.04c-.676 0-1.265-.155-1.265-.95V45.83h-.676v-.715h.676v-1.192h1.102zM52.243 43.599h1.217v4.495h2.705v1.018h-3.922zM57.706 47.117c0-.674.223-1.28.967-1.28s.98.64.98 1.28-.223 1.274-.98 1.274-.967-.674-.967-1.274zm-1.102 0A2.064 2.064 0 0057.914 49a2.081 2.081 0 002.25-.477 2.067 2.067 0 00-1.491-3.515 1.973 1.973 0 00-1.956 1.288 1.955 1.955 0 00-.113.821zM63.338 48.169c-.676 0-.892-.627-.892-1.2s.27-1.14.892-1.14.94.58.94 1.227a.98.98 0 01-.547 1.007.99.99 0 01-.393.099m1.988-3.053h-1.048v.532a1.255 1.255 0 00-1.197-.674 1.796 1.796 0 00-1.654 1.254 1.78 1.78 0 00-.07.728c0 1.098.514 2.022 1.718 2.022a1.356 1.356 0 001.203-.62v.525c0 .573-.27.99-.886.99a.752.752 0 01-.825-.552H61.48c.054.917.973 1.288 1.765 1.288 1.852 0 2.082-1.112 2.082-1.773zM66.259 45.115h1.082v3.997h-1.082zm1.082-.633h-1.082v-.89h1.082zM69.065 47.811c0 .479.412.674.845.674.318 0 .723-.121.723-.512s-.46-.445-1.25-.613c-.636-.142-1.271-.364-1.271-1.065 0-1.025.885-1.287 1.744-1.287s1.683.296 1.771 1.273H70.58c0-.424-.358-.539-.75-.539-.25 0-.615.047-.615.37s.622.452 1.25.594 1.271.384 1.271 1.125c0 1.052-.919 1.389-1.832 1.389s-1.839-.344-1.886-1.409zM73.73 45.115h.811v.715h-.811v2.022c0 .37.095.458.467.458.114.01.23.01.344 0v.856c-.223.033-.45.046-.676.04-.676 0-1.264-.155-1.264-.95V45.83h-.676v-.715h.676v-1.192h1.102zM75.34 45.115h1.094v3.997H75.34zm1.101-.613H75.34v-.91h1.102zM79.93 46.504a.754.754 0 00-.825-.674c-.676 0-.933.674-.933 1.3s.257 1.26.933 1.26a.853.853 0 00.879-.808h1.062a1.79 1.79 0 01-.637 1.206c-.364.303-.832.451-1.304.412a1.947 1.947 0 01-1.462-.565 1.934 1.934 0 01-.566-1.457 1.977 1.977 0 011.21-2.01c.259-.108.537-.16.818-.154a1.7 1.7 0 011.696.855c.11.196.179.412.204.635zM82.614 47.811c0 .479.412.674.845.674.318 0 .724-.121.724-.512s-.46-.445-1.251-.613c-.636-.142-1.271-.364-1.271-1.065 0-1.025.885-1.287 1.744-1.287s1.684.296 1.772 1.273h-1.048c-.034-.424-.359-.539-.75-.539-.251 0-.616.047-.616.37s.622.452 1.25.594c.63.141 1.272.384 1.272 1.125 0 1.052-.92 1.389-1.833 1.389-.912 0-1.839-.344-1.886-1.409z"/></g></g></svg>